HIERARCHY
ROOT Hips
{
  OFFSET -4.35178 90.3298 111.633
  CHANNELS 6 Xposition Yposition Zposition Zrotation Xrotation Yrotation
  JOINT LeftUpLeg
  {
    OFFSET 0.103456 1.85784 10.5485
    CHANNELS 6 Xposition Yposition Zposition Zrotation Xrotation Yrotation
    JOINT LeftLeg
    {
      OFFSET 43.5 -4.2e-05 0
      CHANNELS 6 Xposition Yposition Zposition Zrotation Xrotation Yrotation
      JOINT LeftFoot
      {
        OFFSET 42.3722 1.9e-05 0
        CHANNELS 6 Xposition Yposition Zposition Zrotation Xrotation Yrotation
        JOINT LeftToe
        {
          OFFSET 17.3 0 0
          CHANNELS 6 Xposition Yposition Zposition Zrotation Xrotation Yrotation
          End Site
          {
            OFFSET 0 0 0
          }
        }
      }
    }
  }
  JOINT RightUpLeg
  {
    OFFSET 0.103456 1.85782 -10.5485
    CHANNELS 6 Xposition Yposition Zposition Zrotation Xrotation Yrotation
    JOINT RightLeg
    {
      OFFSET 43.5 -2.7e-05 0
      CHANNELS 6 Xposition Yposition Zposition Zrotation Xrotation Yrotation
      JOINT RightFoot
      {
        OFFSET 42.3723 0 0
        CHANNELS 6 Xposition Yposition Zposition Zrotation Xrotation Yrotation
        JOINT RightToe
        {
          OFFSET 17.3 0 1.7e-05
          CHANNELS 6 Xposition Yposition Zposition Zrotation Xrotation Yrotation
          End Site
          {
            OFFSET 0 0 0
          }
        }
      }
    }
  }
  JOINT Spine
  {
    OFFSET 6.90197 -2.60373 0
    CHANNELS 6 Xposition Yposition Zposition Zrotation Xrotation Yrotation
    JOINT Spine1
    {
      OFFSET 12.5881 0 0
      CHANNELS 6 Xposition Yposition Zposition Zrotation Xrotation Yrotation
      JOINT Spine2
      {
        OFFSET 12.3432 -1.8e-05 0
        CHANNELS 6 Xposition Yposition Zposition Zrotation Xrotation Yrotation
        JOINT Neck
        {
          OFFSET 25.8329 2.3e-05 0
          CHANNELS 6 Xposition Yposition Zposition Zrotation Xrotation Yrotation
          JOINT Head
          {
            OFFSET 11.7666 0 0
            CHANNELS 6 Xposition Yposition Zposition Zrotation Xrotation Yrotation
            End Site
            {
              OFFSET 0 0 0
            }
          }
        }
        JOINT LeftShoulder
        {
          OFFSET 19.7459 -1.48035 6.0001
          CHANNELS 6 Xposition Yposition Zposition Zrotation Xrotation Yrotation
          JOINT LeftArm
          {
            OFFSET 11.2841 1.8e-05 -2e-05
            CHANNELS 6 Xposition Yposition Zposition Zrotation Xrotation Yrotation
            JOINT LeftForeArm
            {
              OFFSET 33 -1.3e-05 1.9e-05
              CHANNELS 6 Xposition Yposition Zposition Zrotation Xrotation Yrotation
              JOINT LeftHand
              {
                OFFSET 25.2 3.2e-05 1.1e-05
                CHANNELS 6 Xposition Yposition Zposition Zrotation Xrotation Yrotation
                End Site
                {
                  OFFSET 0 0 0
                }
              }
            }
          }
        }
        JOINT RightShoulder
        {
          OFFSET 19.7461 -1.48036 -6.00008
          CHANNELS 6 Xposition Yposition Zposition Zrotation Xrotation Yrotation
          JOINT RightArm
          {
            OFFSET 11.2841 0 0
            CHANNELS 6 Xposition Yposition Zposition Zrotation Xrotation Yrotation
            JOINT RightForeArm
            {
              OFFSET 33.0001 1.6e-05 0
              CHANNELS 6 Xposition Yposition Zposition Zrotation Xrotation Yrotation
              JOINT RightHand
              {
                OFFSET 25.1998 0.000123 0.000432
                CHANNELS 6 Xposition Yposition Zposition Zrotation Xrotation Yrotation
                End Site
                {
                  OFFSET 0 0 0
                }
              }
            }
          }
        }
      }
    }
  }
}
MOTION
Frames:	6
Frame Time:	0.0333333
25.3454 119.27 4.20468 94.9223 2.86145 3.08802 0.103456 1.85784 10.5485 -9.05383 -10.6996 -172.118 43.5 -4.2e-05 1e-05 -16.6639 -9.87856 -4.33419 42.3722 1.9e-05 0 90.575 -44.8185 15.5102 17.3 7.10543e-15 3e-06 21.4546 -1e-06 0.003093 0.103456 1.85782 -10.5485 -0.554375 9.33888 153.401 43.5 -2.7e-05 4e-06 -13.4496 13.7407 4.36388 42.3723 7.10543e-15 1e-05 78.943 21.0496 -23.4494 17.3 -6e-06 1.7e-05 21.4546 -1.9e-05 -0.003116 6.90197 -2.60373 -3e-06 11.2663 2.01507 -2.1618 12.5881 1e-05 8e-06 12.564 3.70161 -4.69356 12.3432 -1.8e-05 -5e-06 12.2008 3.59148 -4.89675 25.8329 2.3e-05 7e-06 9.33462 11.2145 -15.6804 11.7666 -8e-06 -6e-06 -0.794887 16.0287 5.84824 19.7459 -1.48035 6.0001 -174.54 20.0347 -89.8488 11.2841 1.8e-05 -2e-05 -0.178089 -21.6427 62.8928 33 -1.3e-05 1.9e-05 -57.4034 17.4431 -9.03616 25.2 3.2e-05 1.1e-05 -25.581 48.5262 -9.55318 19.7461 -1.48036 -6.00008 -171.161 -13.1976 68.8342 11.2841 1.42109e-14 -1e-06 15.7755 28.1733 -43.549 33.0001 1.6e-05 -1e-06 -62.8755 26.0196 19.4649 25.1998 0.000123 0.000432 12.0016 50.1796 -39.5574 
25.5274 120.121 6.47352 94.7484 1.46093 3.00946 0.103456 1.85784 10.5485 -7.00564 -9.81054 -172.98 43.5 -4.2e-05 1e-05 -13.2263 -10.5346 -4.55749 42.3722 1.9e-05 0 89.2394 -44.5506 15.1999 17.3 0 3e-06 21.4546 -1e-06 0.003093 0.103456 1.85782 -10.5485 -3.48513 7.56578 154.58 43.5 -2.7e-05 4e-06 -17.0451 13.9989 4.51041 42.3723 7.10543e-15 1e-05 81.7384 20.9508 -22.3234 17.3 -6e-06 1.7e-05 21.4546 -1.9e-05 -0.003116 6.90197 -2.60373 -3e-06 11.4664 2.02263 -2.27243 12.5881 1e-05 8e-06 12.9675 3.689 -4.92106 12.3432 -1.8e-05 -5e-06 12.6041 3.57094 -5.12322 25.8329 2.3e-05 7e-06 9.2596 10.9132 -15.5648 11.7666 -8e-06 -6e-06 -1.65194 15.8449 5.70888 19.7459 -1.48035 6.0001 -174.415 19.5362 -90.6524 11.2841 1.8e-05 -2e-05 1.56571 -23.1815 63.5649 33 -1.3e-05 1.9e-05 -59.8138 16.7203 -8.61778 25.2 3.2e-05 1.1e-05 -24.532 48.4866 -10.0451 19.7461 -1.48036 -6.00008 -170.696 -13.8823 68.4379 11.2841 0 -1e-06 14.8317 27.1352 -43.8378 33.0001 1.6e-05 -1e-06 -62.9648 25.9686 19.0071 25.1998 0.000123 0.000432 16.237 49.9945 -42.6035 
25.6745 120.851 8.47805 94.6192 0.354024 2.94554 0.103456 1.85784 10.5485 -4.99254 -9.11047 -173.687 43.5 -4.2e-05 1e-05 -9.6959 -11.1016 -4.73294 42.3722 1.9e-05 0 87.2542 -44.4547 14.3658 17.3 0 3e-06 21.4546 -1e-06 0.003093 0.103456 1.85782 -10.5485 -5.45318 6.49949 156.4 43.5 -2.7e-05 4e-06 -19.7112 13.8858 4.58876 42.3723 7.10543e-15 1e-05 84.0301 20.8451 -20.6814 17.3 -6e-06 1.7e-05 21.4546 -1.9e-05 -0.003116 6.90197 -2.60373 -3e-06 11.6211 1.97936 -2.4222 12.5881 1e-05 8e-06 13.2797 3.5673 -5.21386 12.3432 -1.8e-05 -5e-06 12.9171 3.43611 -5.40818 25.8329 2.3e-05 7e-06 9.39104 11.1756 -15.6838 11.7666 -8e-06 -6e-06 -3.26598 16.1031 6.27682 19.7459 -1.48035 6.0001 -174.197 19.2187 -91.4387 11.2841 1.8e-05 -2e-05 3.58358 -24.5328 64.0376 33 -1.3e-05 1.9e-05 -60.9632 16.7159 -8.64038 25.2 3.2e-05 1.1e-05 -23.6595 48.3787 -10.3806 19.7461 -1.48036 -6.00008 -170.487 -14.1896 68.2798 11.2841 0 -1e-06 14.1086 26.4404 -44.0308 33.0001 1.6e-05 -1e-06 -63.5124 25.8336 18.6445 25.1998 0.000123 0.000432 18.7688 49.3761 -43.8355 
25.7389 121.514 10.2922 94.5574 -0.60921 2.88851 0.103456 1.85784 10.5485 -3.2317 -8.26493 -174.341 43.5 -4.2e-05 1e-05 -6.45292 -11.8198 -4.96572 42.3722 1.9e-05 0 85.0732 -44.4332 13.3815 17.3 0 3e-06 21.4546 -1e-06 0.003093 0.103456 1.85782 -10.5485 -6.62884 6.27349 158.813 43.5 -2.7e-05 4e-06 -21.5382 13.3607 4.43163 42.3723 -7.10543e-15 1e-05 85.5271 20.6332 -18.8847 17.3 -6e-06 1.7e-05 21.4546 -1.9e-05 -0.003116 6.90197 -2.60373 -3e-06 11.706 1.91255 -2.62542 12.5881 1e-05 8e-06 13.4519 3.38821 -5.60534 12.3432 -1.8e-05 -5e-06 13.0904 3.23573 -5.78798 25.8329 2.3e-05 7e-06 9.59819 11.8119 -16.0187 11.7666 -8e-06 -6e-06 -4.93526 16.6668 7.21981 19.7459 -1.48035 6.0001 -174.007 19.0686 -91.9729 11.2841 1.8e-05 -2e-05 5.53388 -25.478 64.0396 33 -1.3e-05 1.9e-05 -60.8812 17.2355 -9.04082 25.2 3.2e-05 1.1e-05 -22.8489 47.8754 -10.2792 19.7461 -1.48036 -6.00008 -170.46 -14.1773 68.1479 11.2841 0 -1e-06 14.0839 26.4168 -44.5792 33.0001 1.6e-05 -1e-06 -64.4432 26.04 18.4358 25.1998 0.000123 0.000432 19.275 49.0106 -43.7539 
25.7789 122.079 11.9477 94.4267 -1.50652 2.83394 0.103456 1.85784 10.5485 -2.6427 -7.40211 -175.142 43.5 -4.2e-05 1e-05 -5.67326 -12.2752 -5.16118 42.3722 1.9e-05 0 84.3171 -44.9051 12.5385 17.3 0 3e-06 21.4546 -1e-06 0.003093 0.103456 1.85782 -10.5485 -7.50398 6.18945 161.712 43.5 -2.7e-05 4e-06 -22.9896 12.6933 4.09738 42.3723 0 1e-05 87.0695 20.3492 -16.9505 17.3 -6e-06 1.7e-05 21.4546 -1.9e-05 -0.003116 6.90197 -2.60373 -3e-06 11.7776 1.84773 -2.85888 12.5881 1e-05 8e-06 13.5978 3.20623 -6.05674 12.3432 -1.8e-05 -5e-06 13.2372 3.0284 -6.22742 25.8329 2.3e-05 7e-06 9.74927 12.4452 -16.3821 11.7666 -8e-06 -6e-06 -6.20529 17.244 8.02857 19.7459 -1.48035 6.0001 -173.963 19.1724 -92.1981 11.2841 1.8e-05 -2e-05 6.98934 -25.9614 63.4051 33 -1.3e-05 1.9e-05 -59.5726 18.1971 -9.82249 25.2 3.2e-05 1.1e-05 -22.2029 47.3333 -10.0264 19.7461 -1.48036 -6.00008 -170.552 -13.9353 68.1846 11.2841 0 -1e-06 14.5182 26.8912 -45.2886 33.0001 1.6e-05 -1e-06 -65.5995 26.5522 18.3494 25.1998 0.000123 0.000432 18.7775 48.8672 -43.1724 
25.8075 122.476 13.4705 94.2654 -2.38044 2.77684 0.103456 1.85784 10.5485 -2.02874 -6.82384 -175.904 43.5 -4.2e-05 1e-05 -4.95808 -12.653 -5.22773 42.3722 1.9e-05 -7.10543e-15 83.8876 -45.1294 11.9406 17.3 0 3e-06 21.4546 -1e-06 0.003093 0.103456 1.85782 -10.5485 -8.12132 6.03361 164.812 43.5 -2.7e-05 4e-06 -23.917 11.9127 3.87607 42.3723 -7.10543e-15 1e-05 88.0519 20.5229 -14.9741 17.3 -6e-06 1.7e-05 21.4546 -1.9e-05 -0.003116 6.90197 -2.60373 -3e-06 11.8272 1.79701 -3.10008 12.5881 1e-05 8e-06 13.6995 3.05085 -6.52584 12.3432 -1.8e-05 -5e-06 13.3393 2.84584 -6.68611 25.8329 2.3e-05 7e-06 9.87814 13.0316 -16.7303 11.7666 -8e-06 -6e-06 -7.09854 17.7805 8.637 19.7459 -1.48035 6.0001 -173.952 19.4141 -92.3243 11.2841 1.8e-05 -2e-05 7.82658 -26.0255 62.5326 33 -1.3e-05 1.9e-05 -57.2074 19.5778 -10.9447 25.2 3.2e-05 1.1e-05 -21.8556 46.8698 -9.63162 19.7461 -1.48036 -6.00008 -170.738 -13.655 68.4046 11.2841 0 -1e-06 14.9678 27.5771 -45.7689 33.0001 1.6e-05 -1e-06 -66.5549 27.0245 18.397 25.1998 0.000123 0.000432 17.5715 48.7805 -41.9119 
